/* XPM */
static char	*town_ptn_xpm[] = {
"80 80 72 2",
"  	c None",
". 	c #ffffff",
">d	c #00ffff",
"+ 	c #ff0000",
"++	c #ff0010",
"+i	c #ff0110",
"+b	c #ff0120",
"+w	c #ff0130",
"+a	c #ff0140",
"+m	c #ff0150",
"+t	c #ff0160",
"+l	c #ff0170",
"+u	c #ff0180",
"+g	c #ff0190",
"+r	c #ff01a0",
"+c	c #ff01b0",
"+s	c #ff01c0",
"+p	c #ff01d0",
"##	c #808080",
"#*	c #00ff41",
"#A	c #ffff41",
"#B	c #ffff42",
"#C	c #ffff43",
"#D	c #ffff44",
"#E	c #ffff45",
"#F	c #ffff46",
"#G	c #ffff47",
"#H	c #ffff48",
"#I	c #ffff49",
"#J	c #ffff4a",
"#K	c #ffff4b",
"#L	c #ffff4c",
"#M	c #ffff4d",
"#N	c #ffff4e",
"#O	c #ffff4f",
"#P	c #ffff50",
"#Q	c #ffff51",
"#R	c #ffff52",
"#S	c #ffff53",
"#T	c #ffff54",
"#U	c #ffff55",
"#V	c #ffff56",
"#W	c #ffff57",
"#X	c #ffff58",
"#Y	c #ffff59",
"#Z	c #ffff5a",
"#a	c #ffff61",
"#b	c #ffff62",
"#c	c #ffff63",
"#d	c #ffff64",
"#e	c #ffff65",
"#f	c #ffff66",
"#g	c #ffff67",
"#h	c #ffff68",
"#i	c #ffff69",
"#j	c #ffff6a",
"#k	c #ffff6b",
"#l	c #ffff6c",
"#m	c #ffff6d",
"#n	c #ffff6e",
"#o	c #ffff6f",
"#p	c #ffff70",
"#q	c #ffff71",
"#r	c #ffff72",
"#s	c #ffff73",
"#t	c #ffff74",
"#u	c #ffff75",
"#v	c #ffff76",
"#w	c #ffff77",
"#x	c #ffff78",
"#y	c #ffff79",
"#z	c #ffff7a",
"##########################################################################++++++++++++##########################################################################",
"##. . . . . . . . . . . . . . . . . . . . . . . . . . . . . . . . . . ###*. . . . . . #*##. . . . . . . . . . . . . . . . . . . . . . . . . . . . . . . . . . ##",
"##. . . . . . . . . . . . . . . . . . . . . . . . . . . . . . . . . . ####. . . . . . ####. . . . . . . . . . . . . . . . . . . . . . . . . . . . . . . . . . ##",
"##. . . . . . . . . . . . . . . . . . . . . . . . . . . . . . . . . . . . . . . . . . . . . . . . . . . . . . . . . . . . . . . . . . . . . . . . . . . . . . ##",
"##. . . ############. . . ############################. . . . . . . . . . . . . . . . . . . . . . . . . . . . . . . . . . ############################. . . . ##",
"##. . . ############. . . ############################. . . . . . . . . . . . . . . . . . . . . . . . . . . . . . . . . ###########M#U#S#I#C############. . . ##",
"##. . . ############. . . ############################. . . ##############. . . . . . ##############. . . . . . . . . . #########A#C#A#D#E#M#Y##########. . . ##",
"##. . . ############. . . ############################. . . #############*. . . . . . #*############. . . . . . . . . . ################################. . . ##",
"##. . . ############. . . ##+ ####+ ##############+ ##. . . ####+ ########. . . . . . ########+ ####. . . . . . . . . . ########+ #*+u+u+u+u#*+ ########. . . ##",
"##. . . ############. . . ############################. . . ##########+ ##. . . . . . ##+ ##########. . . . . . . . . . ############+u+u+u+u############. . . ##",
"##. . . ####+ + ####. . . . . . . . . . . . . . . . . . . . . . . . . . . . . . . . . . . . . . . . . . . . . . . . . . #*#####*. . . . . . . . #*#####*. . . ##",
"##. . . ####+ + ####. . . . . . . . . . . . . . . . . . . . . . . . . . . . . . . . . . . . . . . . . . . . . . . . . . ####+ ##. . . . . . . . ##+ ####. . . ##",
"##. . . . . . . . . . . . . . . . . . . . . . . . . . . . . . . . . . . . . . . . . . . . . . . . . . . . . . . . . . . ########. . . . . . . . ########. . . ##",
"##. . . . . . . . . . . . ############################. . . #############*. . . . . . ##############. . . . . . . . . . . . . . . . . . . . . . . . . . . . . ##",
"##. . . . . . . . . . . . ############################. . . ##############. . . . . . #*############. . . . . . . . . . . . . . . . . . . . . . . . . . . . . ##",
"##. . . ############. . . ############################. . . ##############. . . . . . ##############. . . . . . . . . . . . . . . . . . . . . . . . . . . . . ##",
"##. . . ############. . . #####R#E#S#T#A#U#R#A#N#T####. . . ##############. . . . . . ##############. . . . . . . . . . ##########. . . . . . ##########. . . ##",
"##. . . ############. . . #########*#######*##########. . . ##########+ + . . . . . . + + ######+ ##. . . . . . . . . . ##########. . . . . . ##########. . . ##",
"##. . . ############. . . ##+ ##+ ##+r+r+r####+ ##+ ##. . . ##+ ######+ + . . . . . . + + ##########. . . . . . . . . . ##########. . . . . . ##########. . . ##",
"##. . . ############. . . ##########+r+r+r############. . . ##########+ + . . . . . . . . . . . . . . . . . . . . . . . ##########. . . . . . ##########. . . ##",
"##. . . + + ########. . . . . . . . . . . . . . . . . . . . . . . . . . . . . . . . . . . . . . . . . . . . . . . . . . ##########. . . . . . ##########. . . ##",
"##. . . + + ########. . . . . . . . . . . . . . . . . . . . . . . . . . . . . . . . . . . . . . . . . . . . . . . . . . ##########. . . . . . ##########. . . ##",
"##. . . + + ########. . . . . . . . . . . . . . . . . . . . . . . . . . . . . . . . . . . . . . #*########. . . . . . . . . . . . . . . . . . . . . . . . . . ##",
"##. . . ############. . #####*+c+c+c#*##. . . #*#########################*. . . . . . . . . . . ##########. . . . . . . . . . . . . . . . . . . . . . . . . . ##",
"##. . . ############. . ######+c+c+C####. . . ############################. . . . . . . . . . . ##########. . . . . . . . . . . . . . . . . . . . . . . . . . ##",
"##. . . ############. . ################. . . ############################. . . . . . . . . . . ##########. . . . . . . . . . . . . ####################. . . ##",
"##. . . ##+ ####+ ##. . #T#E#A#R#O#O#M##. . . ############################. . . . . . . . . . . ##########. . . . . . . . . . . . . ####################. . . ##",
"##. . . ############. . ################. . . ############################. . . . . . #*######################################. . . ####################. . . ##",
"##. . . . . . . . . . . . . . . . . . . . . . #####################I#N#N##. . . . . . ########################################. . . ####################. . . ##",
"##. . . . . . . . . . . . . . . . . . . . . . ###########################*. . . . . . +t+t#################T#E#M#P#L#E#######*. . . ####################. . . ##",
"##. . . . . . . . . . . . . . . . . . . . . . ####################+i+i+i##. . . . . . +t+t##+ ##############+ ######+ ########. . . ####################. . . ##",
"##. . . . . ############################. . . ####################+i+i+i##. . . . . . +t+t####################################. . . ####################. . . ##",
"##. . . . . ############################. . . ##################. . . . . . . . . . . . . . . . ##########. . . . . . . . . . . . . ################. . . . . ##",
"##. . . . . #####G#R#O#C#E#R#Y##########. . . #########B#A#R####. . . . . . . . . . . . . . . . ##########. . . . . . . . . . . . . ################. . . . . ##",
"##. . . . . #######*#######*############. . . #*###############*. . . . . . . . . . . . . . . . #*########. . . . . . . . . . . . . #########*######. . . . . ##",
"#####*. . . ########+g+g+g####+ ########. . . ##+ ##+ ##+b+b+b##. . . ###*. . . . . . #*##. . . ####+ ####. . . . . . . . . . . . . ##+ ######+ + ##. . . #*####",
"######. . . ########+g+g+g##############. . . ##########+b+b+b##. . . ####. . . . . . ####. . . ##########. . . . . . . . . . . . . ##########+ + ##. . . ######",
"++. . . . . . . . . . . . . . . . . . . . . . . . . . . . . . . . . . . . . . . . . . . . . . . . . . . . . . . . . . . . . . . . . . . . . . . . . . . . . . ++",
"++. . . . . . . . . . . . . . . . . . . . . . . . . . . . . . . . . . . . . . . . . . . . . . . . . . . . . . . . . . . . . . . . . . . . . . . . . . . . . . ++",
"++. . . . . . . . . . . . . . . . . . . . . . . . . . . . . . . . . . . . . . . . . . . . . . . . . . . . . . . . . . . . . . . . . . . . . . . . . . . . . . ++",
"++. . . . . . . . . . . . . . . . . . . . . . . . . . . . . . . . . . . . . . . >d. . . . . . . . . . . . . . . . . . . . . . . . . . . . . . . . . . . . . . ++",
"++. . . . . . . . . . . . . . . . . . . . . . . . . . . . . . . . . . . . . . . . . . . . . . . . . . . . . . . . . . . . . . . . . . . . . . . . . . . . . . ++",
"++. . . . . . . . . . . . . . . . . . . . . . . . . . . . . . . . . . . . . . . . . . . . . . . . . . . . . . . . . . . . . . . . . . . . . . . . . . . . . . ++",
"#####*. . . ###################*+p+p+p##. . . ##+s+s#*##########. . . ###*. . . . . . #*##. . . . . . . . . . . . . +m+m+m. . . . . . . . #*+l+l+l#*. . . #*####",
"######. . . ####################+p+p+p##. . . ##+s+s############. . . ####. . . . . . ####. . . . . . . . . . . ###*+m+m+m#*##. . . . . . ##+l+l+l##. . . ######",
"##. . . . . ############################. . . ##################. . . . . . . . . . . . . . . . . . . . . . . ##################. . . . . ##########. . . . . ##",
"##. . . . . #####################P#E#T##. . . ###T#O#B#A#C#C#O##. . . . . . . . . . . . . . . . . . . . . . #######M#A#G#I#C######. . . . ##########. . . . . ##",
"##. . . . . ############################. . . ##################. . . . . . . . . . . . . . . . . . . . . . ######################. . . . ##########. . . . . ##",
"##. . . . . ####+ ####+ ####+ ####+ ####. . . ########+ ########. . . . . . . . . . . ##############. . . ############. ############. . . ##############. . . ##",
"##. . . . . ############################. . . ##################. . . . . . . . . . . ##############. . . ##########. . . ##########. . . #A#L#C#H#E#M#Y. . . ##",
"##. . . . . . . . . . . . . . . . . . . . . . . . . . . . . . . . . . . . . . . . . . ##############. . . ############. ############. . . ##############. . . ##",
"##. . . . . . . . . . . . . . . . . . . . . . . . . . . . . . . . . . . . . . . . . . ##############. . . . ######################. . . . ##############. . . ##",
"##. . . . . . . . . . . . . . . . . . . . . . . . . . . . . . . . . . . . . . . . . . ##############. . . . ######################. . . . ##############. . . ##",
"##. . . ############. . ################. . . ###########################*. . . . . . ###A#R#M#O#R##. . . . . ##################. . . . . ##############. . . ##",
"##. . . ############. . ################. . . ###############W#E#A#P#O#N##. . . . . . ##############. . . . . . ##############. . . . . . ######+ ######. . . ##",
"##. . . ############. . ################. . . ############################. . . . . . ##############. . . . . . . . ######. . . . . . . . ##############. . . ##",
"##. . . ############. . ################. . . ############################. . . . . . #*############. . . . . . . . . . . . . . . . . . . . . . . . . . . . . ##",
"##. . . ############. . ################. . . #######################*+w+w. . . . . . +a+a#*########. . . . . . . . . . . . . . . . . . . . . . . . . . . . . ##",
"##. . . ############. . ##+ ############. . . ##+ ##############+ ####+w+w. . . . . . +a+a####+ ####. . . . . . . . . . . . . . . . . . . . . . . . . . . . . ##",
"##. . . ############. . ############+ ##. . . ########################+w+w. . . . . . +a+a##########. . . ##############################################. . . ##",
"##. . . ##+ ########. . . . . . . . . . . . . . . . . . . . . . . . . . . . . . . . . . . . . . . . . . . ##############################################. . . ##",
"##. . . ######+ ####. . . . . . . . . . . . . . . . . . . . . . . . . . . . . . . . . . . . . . . . . . . ##############################################. . . ##",
"##. . . . . . . . . . . ##################. . . . . . . . . . . . . . . . . . . . . . . . . . . . . . . . ##############################################. . . ##",
"##. . . . . . . . . . . ##################. . ########. . . ##############. . . . . . ##############. . . ##############################################. . . ##",
"##. . . ############. . ##################. . ########. . . ##############. . . . . . ##############. . . ####+ + ####+ + ####+ + ####+ + ####+ + ######. . . ##",
"##. . . ############. . ##################. . ########. . . ##########+ + . . . . . . ##############. . . ####+ + ####+ + ####+ + ####+ + ####+ + ######. . . ##",
"##. . . ############. . ##+ + ##+ ########. . ########. . . ##########+ + . . . . . . ############+ . . . . . . . . . . . . . . . . . . . . . . . . . . . . . ##",
"##. . . ########+ ##. . ##+ + ##########+ . . + ######. . . ##########+ + . . . . . . ############+ . . . . . . . . . . . . . . . . . . . . . . . . . . . . . ##",
"##. . . ##+ ########. . . . . . . . . . . . . . . . . . . . . . . . . . . . . . . . . ##############. . . . . . . . . . . . . . . . . . . . . . . . . . . . . ##",
"##. . . . . . . . . . . . . . . . . . . . . . . . . . . . . . . . . . . . . . . . . . ##############. . . ####+ + ####+ + ####+ + ####+ + ####+ + ######. . . ##",
"##. . . ########+ ##. . ##+ + ########################. . . ##############. . . . . . ##############. . . ####+ + ####+ + ####+ + ####+ + ####+ + ######. . . ##",
"##. . . ############. . ##+ + ########################. . . ##############. . . . . . ##############. . . ##############################################. . . ##",
"##. . . ############. . ##############################. . . ####+ + + ####. . . . . . ##+ ######+ ##. . . ##############################################. . . ##",
"##. . . ############. . ##############################. . . ####+ + + ####. . . . . . ##############. . . ##############################################. . . ##",
"##. . . ##+ ########. . ####+ ########+ ##########+ ##. . . . . . . . . . . . . . . . . . . . . . . . . . ######+ ######+ ######+ ######+ ######+ ######. . . ##",
"##. . . ############. . ##############################. . . . . . . . . . . . . . . . . . . . . . . . . . ##############################################. . . ##",
"##. . . . . . . . . . . . . . . . . . . . . . . . . . . . . . . . . . . . . . . . . . . . . . . . . . . . . . . . . . . . . . . . . . . . . . . . . . . . . . ##",
"##. . . . . . . . . . . . . . . . . . . . . . . . . . . . . . . . . . ###*. . . . . . #*##. . . . . . . . . . . . . . . . . . . . . . . . . . . . . . . . . . ##",
"##. . . . . . . . . . . . . . . . . . . . . . . . . . . . . . . . . . ####. . . . . . ####. . . . . . . . . . . . . . . . . . . . . . . . . . . . . . . . . . ##",
"##########################################################################++++++++++++##########################################################################",
};
